<?xml version="1.0" standalone="no"?>
<!DOCTYPE svg PUBLIC "-//W3C//DTD SVG 20010904//EN"
 "http://www.w3.org/TR/2001/REC-SVG-20010904/DTD/svg10.dtd">
<svg version="1.0" xmlns="http://www.w3.org/2000/svg"
 width="360.000000pt" height="360.000000pt" viewBox="0 0 360.000000 360.000000"
 preserveAspectRatio="xMidYMid meet">

<g transform="translate(0.000000,360.000000) scale(0.100000,-0.100000)"
fill="#000000" stroke="none">
<path d="M1759 3424 c-49 -53 -171 -144 -231 -173 -135 -64 -327 -112 -523
-131 -162 -15 -398 -57 -484 -86 -163 -55 -248 -128 -295 -254 -41 -113 -30
-170 37 -186 26 -6 28 -5 22 19 -8 31 19 86 75 149 71 81 235 146 409 164 39
3 71 5 71 3 0 -2 -12 -38 -25 -78 -64 -187 -79 -474 -37 -695 26 -136 66 -264
96 -309 49 -72 155 -99 201 -52 32 31 31 48 -6 163 -63 198 -80 301 -86 510
-5 173 4 331 24 450 l5 32 147 0 c146 0 288 16 411 45 102 24 237 96 297 157
116 119 123 212 20 273 -57 33 -97 32 -128 -1z"/>
<path d="M2400 3101 c-90 -24 -152 -53 -225 -106 -78 -55 -132 -117 -147 -168
-11 -35 -10 -41 7 -53 26 -19 35 -17 35 7 0 27 108 135 178 177 l52 32 0 -34
c0 -19 -11 -81 -25 -138 -27 -116 -45 -244 -45 -329 0 -71 32 -178 65 -217 17
-21 25 -42 25 -69 0 -22 11 -62 26 -91 45 -91 124 -135 244 -135 92 -1 153 25
206 87 42 48 120 204 130 259 7 42 19 48 28 13 15 -62 142 -136 233 -136 116
0 196 124 197 306 0 123 -25 177 -104 217 -69 35 -118 35 -159 1 -33 -28 -49
-30 -121 -17 -38 7 -45 12 -48 33 -5 39 -32 120 -58 171 -82 164 -293 245
-494 190z m233 -55 c85 -36 157 -184 157 -323 l0 -52 -122 -59 c-68 -32 -151
-80 -185 -105 l-62 -46 -3 222 c-3 217 -4 223 -30 279 l-27 58 62 19 c73 23
165 26 210 7z m622 -369 c8 -13 18 -37 21 -55 6 -30 5 -32 -24 -32 -52 0 -77
43 -52 91 14 26 36 24 55 -4z m-264 -77 l-26 -50 -3 37 c-3 27 2 41 14 50 36
27 42 13 15 -37z m152 -30 c19 -12 58 -23 86 -27 45 -5 51 -9 51 -29 0 -43
-43 -138 -81 -178 -37 -40 -38 -41 -53 -21 -29 39 -46 108 -46 192 0 46 2 83
4 83 3 0 20 -9 39 -20z m-378 -62 c-13 -61 -71 -206 -106 -263 -19 -31 -53
-77 -76 -103 l-41 -47 -18 40 c-52 115 17 262 171 364 33 22 64 41 68 41 5 0
6 -15 2 -32z"/>
<path d="M1458 2675 c-16 -9 -38 -38 -55 -74 -25 -53 -32 -59 -66 -65 -49 -8
-109 -68 -131 -131 -19 -57 -22 -218 -5 -276 34 -113 185 -192 304 -159 90 25
159 116 205 268 41 137 17 314 -53 391 -49 54 -144 75 -199 46z m117 -127 c23
-78 19 -190 -9 -269 -27 -78 -86 -171 -127 -199 l-28 -21 -16 25 c-53 81 -76
212 -55 320 13 68 30 98 30 52 0 -27 31 -51 54 -43 7 3 22 31 34 64 23 61 77
137 93 128 4 -3 15 -29 24 -57z"/>
<path d="M1974 2426 c-74 -14 -122 -34 -144 -61 -22 -27 9 -49 67 -47 54 1
245 62 251 80 10 30 -80 45 -174 28z"/>
<path d="M2607 1833 c-8 -10 -36 -76 -61 -147 -25 -71 -47 -130 -48 -131 -12
-12 -344 -56 -391 -53 -68 5 -99 27 -80 57 15 25 8 31 -37 31 -47 0 -73 -26
-68 -71 8 -85 182 -119 436 -85 51 6 94 10 96 8 2 -1 -16 -62 -41 -135 -124
-367 -126 -552 -9 -729 45 -69 112 -121 179 -139 64 -17 185 -7 233 20 120 68
177 320 92 416 -24 28 -37 35 -67 35 l-36 0 0 -92 c0 -83 -3 -99 -29 -150 -30
-59 -81 -128 -96 -128 -13 0 -67 91 -84 143 -26 79 -37 223 -26 339 13 124 58
405 69 434 8 18 23 22 117 32 60 7 163 12 230 12 119 0 121 0 132 -25 10 -21
19 -25 52 -25 34 0 42 4 52 26 11 24 9 29 -19 54 -46 42 -131 53 -361 49
l-192 -4 6 75 c3 41 9 100 14 130 4 30 6 58 3 63 -8 13 -50 7 -66 -10z"/>
<path d="M1247 1682 c-91 -57 -249 -362 -352 -682 -86 -270 -114 -433 -96
-565 25 -174 103 -261 247 -273 162 -13 270 89 365 345 l21 53 28 -24 c35 -29
91 -40 157 -31 42 6 56 15 108 69 49 50 76 93 147 231 l87 170 21 -50 c56
-129 80 -197 95 -274 30 -145 10 -281 -42 -298 -6 -2 -21 22 -33 54 -23 62
-31 169 -17 234 7 32 5 37 -14 42 -31 8 -67 -12 -91 -52 -18 -29 -23 -54 -26
-131 -3 -84 -1 -100 20 -140 13 -25 38 -55 57 -67 68 -45 218 -20 298 50 103
91 112 271 23 463 -21 45 -55 108 -77 140 -70 104 -87 154 -73 217 l7 32 22
-47 c12 -27 28 -48 36 -48 37 0 48 97 15 130 -31 31 -119 28 -158 -5 -16 -13
-87 -117 -158 -230 -70 -112 -151 -235 -179 -272 -45 -61 -50 -65 -53 -42 -2
14 4 70 12 125 45 290 50 342 38 368 -12 28 -39 33 -72 16 -10 -5 -71 -110
-136 -232 -210 -401 -317 -582 -371 -631 -20 -17 -20 -16 -33 43 -22 104 -9
268 39 477 40 174 128 454 205 652 47 122 55 170 31 188 -26 18 -65 16 -98 -5z"/>
<path d="M1625 1420 c-14 -16 -20 -37 -20 -77 0 -63 15 -80 58 -69 32 8 80 93
75 134 -3 24 -8 27 -49 30 -36 2 -49 -1 -64 -18z"/>
</g>
</svg>
