<?xml version="1.0" standalone="no"?>
<!DOCTYPE svg PUBLIC "-//W3C//DTD SVG 20010904//EN"
 "http://www.w3.org/TR/2001/REC-SVG-20010904/DTD/svg10.dtd">
<svg version="1.0" xmlns="http://www.w3.org/2000/svg"
 width="300.000000pt" height="300.000000pt" viewBox="0 0 300.000000 300.000000"
 preserveAspectRatio="xMidYMid meet">

<g transform="translate(0.000000,300.000000) scale(0.100000,-0.100000)"
fill="#000000" stroke="none">
<path d="M2080 2360 c-13 -8 -12 -10 2 -10 20 0 13 24 104 -345 36 -148 70
-274 74 -279 5 -4 -28 135 -72 310 -43 176 -82 322 -86 326 -4 4 -14 3 -22 -2z"/>
<path d="M1828 2293 c7 -3 16 -2 19 1 4 3 -2 6 -13 5 -11 0 -14 -3 -6 -6z"/>
<path d="M1748 2273 c7 -3 16 -2 19 1 4 3 -2 6 -13 5 -11 0 -14 -3 -6 -6z"/>
<path d="M1708 2263 c7 -3 16 -2 19 1 4 3 -2 6 -13 5 -11 0 -14 -3 -6 -6z"/>
<path d="M1668 2253 c7 -3 16 -2 19 1 4 3 -2 6 -13 5 -11 0 -14 -3 -6 -6z"/>
<path d="M1165 2135 c-247 -62 -449 -116 -449 -121 5 -36 68 -281 74 -288 5
-4 -8 56 -27 134 -21 82 -32 145 -27 150 5 5 214 60 464 123 250 64 446 115
435 115 -11 0 -222 -51 -470 -113z"/>
<path d="M1027 1674 c-8 -9 -9 -339 -1 -371 7 -26 40 -30 95 -12 90 31 146
147 119 247 -13 52 -71 119 -108 126 -72 14 -98 17 -105 10z m112 -49 c61 -52
76 -153 36 -239 -20 -41 -61 -74 -75 -60 -15 17 -17 324 -1 324 5 0 23 -11 40
-25z"/>
<path d="M420 1663 c-95 -4 -129 -15 -100 -33 8 -5 30 -10 48 -10 l32 0 0
-142 c0 -179 3 -190 44 -186 l31 3 0 165 0 164 38 7 c20 3 40 9 44 13 8 8 -17
27 -32 24 -5 -1 -53 -4 -105 -5z"/>
<path d="M709 1647 c-48 -32 -71 -100 -65 -195 5 -88 27 -130 80 -156 89 -44
166 43 166 189 0 150 -85 226 -181 162z m105 -22 c60 -60 31 -290 -38 -303
-45 -9 -75 174 -41 255 27 65 49 78 79 48z"/>
<path d="M1445 1661 c-51 -21 -84 -93 -85 -185 0 -123 44 -189 126 -189 57 0
85 27 109 105 19 65 19 121 0 186 -24 78 -82 110 -150 83z m88 -39 c40 -43 39
-197 0 -265 -44 -74 -93 -14 -93 115 0 80 10 121 37 150 20 23 36 23 56 0z"/>
<path d="M1740 1655 c-9 -11 -11 -52 -8 -167 3 -84 8 -160 12 -170 11 -26 61
-41 116 -36 28 3 53 8 56 11 14 14 -11 27 -51 27 -24 0 -47 6 -51 12 -5 7 -10
85 -14 173 -5 153 -6 160 -26 163 -11 2 -27 -4 -34 -13z"/>
<path d="M2042 1658 c-13 -13 -16 -233 -4 -323 7 -47 9 -50 39 -53 l31 -3 -5
183 c-2 101 -6 189 -8 196 -5 15 -37 16 -53 0z"/>
<path d="M2260 1650 c-31 -31 -26 -80 15 -136 53 -74 67 -104 67 -140 0 -62
-28 -72 -62 -24 -28 39 -50 39 -50 1 0 -59 83 -90 149 -56 32 16 41 33 41 75
0 42 -16 76 -65 143 -47 61 -57 104 -31 126 16 13 29 1 45 -42 13 -33 31 -27
31 9 0 37 -33 64 -80 64 -27 0 -47 -7 -60 -20z"/>
<path d="M2626 1661 c-65 -4 -101 -10 -103 -18 -4 -12 15 -19 65 -25 22 -3 23
-6 28 -158 2 -85 8 -158 13 -163 5 -5 19 -7 32 -5 24 3 24 5 25 118 3 238 0
220 32 220 15 0 34 5 42 10 13 9 13 11 0 20 -8 5 -19 9 -25 8 -5 -1 -55 -4
-109 -7z"/>
<path d="M894 1290 c26 -114 155 -622 159 -626 3 -3 215 48 472 113 256 65
462 119 457 121 -5 1 -209 -47 -452 -108 -244 -61 -450 -110 -458 -108 -12 2
-36 85 -93 311 -42 170 -80 311 -84 315 -4 4 -4 -4 -1 -18z"/>
<path d="M2381 1218 c-1 -16 -6 -28 -12 -28 -8 0 -8 -4 0 -14 10 -11 10 -20 0
-38 -21 -40 -69 -96 -109 -128 l-39 -31 2 58 c1 32 -2 78 -7 102 -7 39 -6 43
8 38 10 -4 15 -3 11 3 -3 6 -15 10 -27 10 -17 0 -19 -4 -12 -27 5 -16 9 -63 9
-106 0 -71 -2 -81 -24 -98 -39 -32 1 -22 48 11 62 45 113 102 144 159 24 42
26 55 18 83 -9 32 -9 32 -10 6z"/>
<path d="M2288 1173 c12 -2 30 -2 40 0 9 3 -1 5 -23 4 -22 0 -30 -2 -17 -4z"/>
<path d="M2128 933 c7 -3 16 -2 19 1 4 3 -2 6 -13 5 -11 0 -14 -3 -6 -6z"/>
<path d="M2088 923 c7 -3 16 -2 19 1 4 3 -2 6 -13 5 -11 0 -14 -3 -6 -6z"/>
<path d="M2048 913 c7 -3 16 -2 19 1 4 3 -2 6 -13 5 -11 0 -14 -3 -6 -6z"/>
<path d="M2008 903 c7 -3 16 -2 19 1 4 3 -2 6 -13 5 -11 0 -14 -3 -6 -6z"/>
</g>
</svg>
